<?xml version="1.0" encoding="UTF-8" standalone="no"?>
<!-- Created with Inkscape (http://www.inkscape.org/) -->

<svg
   width="271mm"
   height="72mm"
   viewBox="0 0 271 72"
   version="1.1"
   id="svg1"
   xml:space="preserve"
   inkscape:version="1.3.2 (091e20e, 2023-11-25)"
   sodipodi:docname="logo.svg"
   xmlns:inkscape="http://www.inkscape.org/namespaces/inkscape"
   xmlns:sodipodi="http://sodipodi.sourceforge.net/DTD/sodipodi-0.dtd"
   xmlns:xlink="http://www.w3.org/1999/xlink"
   xmlns="http://www.w3.org/2000/svg"
   xmlns:svg="http://www.w3.org/2000/svg"><sodipodi:namedview
     id="namedview1"
     pagecolor="#ffffff"
     bordercolor="#000000"
     borderopacity="0.25"
     inkscape:showpageshadow="2"
     inkscape:pageopacity="0.0"
     inkscape:pagecheckerboard="0"
     inkscape:deskcolor="#d1d1d1"
     inkscape:document-units="mm"
     inkscape:zoom="0.56673497"
     inkscape:cx="616.69038"
     inkscape:cy="6.1757262"
     inkscape:window-width="1824"
     inkscape:window-height="1022"
     inkscape:window-x="0"
     inkscape:window-y="30"
     inkscape:window-maximized="0"
     inkscape:current-layer="g48" /><defs
     id="defs1"><linearGradient
       id="linearGradient51"
       inkscape:collect="always"><stop
         style="stop-color:#4ea5e5;stop-opacity:1;"
         offset="0"
         id="stop52" /><stop
         style="stop-color:#85429a;stop-opacity:1;"
         offset="1"
         id="stop53" /></linearGradient><linearGradient
       id="linearGradient50"
       inkscape:collect="always"><stop
         style="stop-color:#d475db;stop-opacity:1;"
         offset="0"
         id="stop50" /><stop
         style="stop-color:#f1aaf7;stop-opacity:1;"
         offset="1"
         id="stop51" /></linearGradient><linearGradient
       id="linearGradient47"
       inkscape:collect="always"><stop
         style="stop-color:#fe95ca;stop-opacity:1;"
         offset="0"
         id="stop48" /><stop
         style="stop-color:#4a268d;stop-opacity:1;"
         offset="1"
         id="stop49" /></linearGradient><linearGradient
       id="linearGradient44"
       inkscape:collect="always"><stop
         style="stop-color:#fe97cf;stop-opacity:1;"
         offset="0"
         id="stop45" /><stop
         style="stop-color:#56319c;stop-opacity:1;"
         offset="0.52777779"
         id="stop47" /><stop
         style="stop-color:#4dbbf2;stop-opacity:1;"
         offset="1"
         id="stop46" /></linearGradient><linearGradient
       id="linearGradient43"
       inkscape:collect="always"><stop
         style="stop-color:#613dbd;stop-opacity:1;"
         offset="0"
         id="stop43" /><stop
         style="stop-color:#acf1fc;stop-opacity:1;"
         offset="1"
         id="stop44" /></linearGradient><linearGradient
       id="linearGradient41"
       inkscape:collect="always"><stop
         style="stop-color:#ed81dd;stop-opacity:1;"
         offset="0"
         id="stop41" /><stop
         style="stop-color:#4e2176;stop-opacity:1;"
         offset="1"
         id="stop42" /></linearGradient><linearGradient
       inkscape:collect="always"
       xlink:href="#linearGradient41"
       id="linearGradient42"
       x1="46.84798"
       y1="157.56694"
       x2="26.483351"
       y2="128.61806"
       gradientUnits="userSpaceOnUse"
       gradientTransform="matrix(0.39112943,0,0,0.39112943,-1.6863052,-17.01578)" /><radialGradient
       inkscape:collect="always"
       xlink:href="#linearGradient43"
       id="radialGradient44"
       cx="111.54202"
       cy="206.80525"
       fx="111.54202"
       fy="206.80525"
       r="67.278946"
       gradientTransform="matrix(0.40698988,0.29371925,-0.35204298,0.48780575,67.518187,-72.509668)"
       gradientUnits="userSpaceOnUse" /><linearGradient
       inkscape:collect="always"
       xlink:href="#linearGradient44"
       id="linearGradient46"
       x1="51.153301"
       y1="191.42662"
       x2="176.61497"
       y2="101.81115"
       gradientUnits="userSpaceOnUse"
       gradientTransform="matrix(0.39112943,0,0,0.39112943,-1.6863052,-17.01578)" /><linearGradient
       inkscape:collect="always"
       xlink:href="#linearGradient47"
       id="linearGradient49"
       x1="76.08773"
       y1="175.98396"
       x2="88.004608"
       y2="83.523598"
       gradientUnits="userSpaceOnUse"
       gradientTransform="matrix(0.39112943,0,0,0.39112943,-1.6863052,-17.01578)" /><radialGradient
       inkscape:collect="always"
       xlink:href="#linearGradient50"
       id="radialGradient51"
       cx="69.608864"
       cy="65.610085"
       fx="69.608864"
       fy="65.610085"
       r="67.191734"
       gradientTransform="matrix(0.62636656,0.02613746,-0.0174705,0.41866874,-15.113507,-17.064673)"
       gradientUnits="userSpaceOnUse" /><linearGradient
       inkscape:collect="always"
       xlink:href="#linearGradient51"
       id="linearGradient53"
       x1="262.66669"
       y1="67.993744"
       x2="112.09576"
       y2="66.999611"
       gradientUnits="userSpaceOnUse"
       gradientTransform="translate(-20.10834,-56.620863)" /><linearGradient
       inkscape:collect="always"
       xlink:href="#linearGradient51"
       id="linearGradient53-8"
       x1="262.66669"
       y1="67.993744"
       x2="112.09576"
       y2="66.999611"
       gradientUnits="userSpaceOnUse"
       gradientTransform="translate(-20.10834,-56.62086)" /></defs><g
     inkscape:label="Layer 1"
     inkscape:groupmode="layer"
     id="layer1"
     style="display:inline" /><g
     inkscape:groupmode="layer"
     id="layer2"
     inkscape:label="Layer 2 copy 1" /><g
     inkscape:groupmode="layer"
     id="g48"
     inkscape:label="Layer 2 copy"
     style="display:inline"><g
       id="g4"><path
         id="path47-2"
         style="display:inline;fill:#fcd7ff;fill-opacity:1;stroke:none;stroke-width:0;stroke-dasharray:none;stroke-opacity:1"
         d="M 36.958467,6.2326945 C 32.353119,6.1274968 27.724048,7.1250324 23.136572,9.2309611 8.8992493,15.766752 2.4924414,30.382953 7.5525105,44.623633 c 6.063e-4,0.0017 9.438e-4,0.0035 0.00155,0.0052 -2.136e-4,-0.0058 -2.789e-4,-0.03647 -5.167e-4,-0.04444 -1.113e-4,-6.35e-4 -4.042e-4,-0.003 -5.168e-4,-0.0036 -0.01047,-0.997378 0.1249599,-6.257757 3.893303,-10.519771 9.801105,-11.085074 28.113787,-11.653841 30.62397,-11.67939 1.234932,-0.01255 2.274259,0.0062 2.309937,0.04186 0.29001,0.289988 -1.34023,2.096906 -7.450708,8.259445 -11.950938,12.052744 -17.536126,18.986693 -19.451526,24.146329 -0.356892,0.961384 -0.513337,1.6756 -0.434599,2.284615 0.139829,-0.09691 2.392714,-1.633964 6.751526,-3.111954 4.466015,-1.514331 7.798598,-1.765001 7.8512,-1.768885 -0.526216,-0.02832 -0.479608,-0.178244 -0.363802,-0.766878 1.065854,-5.417618 9.960239,-16.857161 23.53138,-30.264819 4.392939,-4.34004 4.725293,-4.732617 4.725293,-5.582605 0,-0.768851 -0.454577,-1.317336 -1.219047,-1.505851 -0.07374,-0.01818 -0.146897,-0.0373 -0.226343,-0.04858 -0.591723,-0.08397 -1.590174,-0.626277 -3.625618,-1.970423 C 48.762047,8.325819 42.879614,6.3679489 36.958467,6.2326945 Z"
         sodipodi:nodetypes="ssscccccccscscscssscscc" /><path
         id="path42-8"
         style="display:inline;fill:#dffbff;stroke:none;stroke-width:0;stroke-dasharray:none;stroke-opacity:1;fill-opacity:1"
         d="m 64.853406,23.004281 c -1.763081,0.06526 -4.22048,1.197088 -5.432744,2.6479 -1.467903,1.756748 -1.610086,2.943087 -0.766878,6.393925 1.038506,4.250122 0.877919,6.51145 -0.63717,8.985498 -3.414972,5.576381 -15.769679,11.012216 -25.45426,11.199316 -0.419946,0.0081 -0.707451,0.01365 -0.914673,0.0026 -0.0526,0.0039 -3.385172,0.254542 -7.851201,1.768885 -4.358825,1.47799 -6.611697,3.015557 -6.751526,3.112471 0.0748,0.578566 0.361072,1.062076 0.903304,1.565279 0.301251,0.279567 0.664599,0.563557 1.130681,0.876949 5.470337,3.678248 11.130831,5.666156 17.79788,6.249748 1.03271,0.0904 5.689562,-0.04239 6.778397,-0.19327 16.807993,-2.32908 28.268369,-16.009243 26.59786,-31.75 -0.414227,-3.903171 -2.478434,-9.167741 -3.95118,-10.487215 -0.0015,-0.0019 -0.0037,-0.0069 -0.0052,-0.0088 -0.12319,-0.102965 -0.244049,-0.189344 -0.357601,-0.228927 -0.309072,-0.107743 -0.678857,-0.149418 -1.085722,-0.134358 z"
         sodipodi:nodetypes="ssscccscsssssccsscc" /><path
         id="path43"
         style="display:inline;fill:none;fill-opacity:1;stroke:none;stroke-width:0;stroke-dasharray:none;stroke-opacity:1"
         d="m 66.297738,23.366934 c 0.133622,0.164455 0.35743,0.644543 0.390907,2.242944 0.04672,2.231088 0.08164,10.548139 -8.468903,19.659374 -8.550539,9.111234 -21.960319,12.008052 -21.960319,12.008052 0,0 -3.083971,0.724349 -6.681741,1.214954 -3.575679,0.48759 -9.612004,0.535648 -11.58966,0.192217 1.982971,0.34708 8.084228,0.622869 11.657371,0.135624 10.816815,-1.419116 22.051796,-5.100797 29.269245,-12.983088 8.406076,-9.180426 7.943213,-17.997465 7.896489,-20.228545 -0.03012,-1.439122 -0.268722,-1.971582 -0.441433,-2.18413 -0.02437,-0.02171 -0.04781,-0.03723 -0.07196,-0.0574 z" /><g
         id="g2"><path
           id="path42"
           style="display:inline;fill:url(#radialGradient44);stroke:none;stroke-width:0;stroke-dasharray:none;stroke-opacity:1"
           d="m 66.298599,23.371741 c 0.172711,0.212548 0.482391,0.797603 0.512528,2.236725 0.04672,2.231084 0.509598,11.048112 -7.896489,20.228545 -7.217453,7.882299 -18.452419,11.563972 -29.269245,12.983088 -3.592089,0.489831 -9.746655,0.208785 -11.695977,-0.140881 0.301251,0.279567 0.664385,0.56402 1.130467,0.877413 5.470343,3.678251 11.130976,5.66601 17.798032,6.249603 1.032711,0.0904 5.689512,-0.04235 6.778349,-0.19323 C 60.464273,63.283922 71.924581,49.603486 70.254071,33.862713 69.83947,29.956022 67.771604,24.685287 66.298599,23.371741 Z"
           sodipodi:nodetypes="cssccsscsc" /><path
           id="path44"
           style="display:inline;fill:url(#linearGradient46);stroke:none;stroke-width:0;stroke-dasharray:none;stroke-opacity:1"
           d="m 31.648621,52.232748 c -0.0526,0.0039 -3.385385,0.254625 -7.851418,1.768969 -4.35883,1.477992 -6.611441,3.015357 -6.75127,3.112271 0.0748,0.578567 0.36125,1.062026 0.903483,1.56523 0.01028,0.002 0.02809,0.0035 0.03861,0.0052 1.977654,0.343431 8.013985,0.295369 11.589661,-0.192217 3.597766,-0.490605 6.68174,-1.214953 6.68174,-1.214953 0,0 13.409789,-2.89683 21.96032,-12.008053 8.550539,-9.111227 8.515627,-17.428286 8.468903,-19.659374 -0.03348,-1.598397 -0.257285,-2.078489 -0.390907,-2.242943 -0.12319,-0.102965 -0.243998,-0.18942 -0.357551,-0.229003 -1.648384,-0.574631 -5.026611,0.72797 -6.518629,2.513586 -1.467905,1.75675 -1.610261,2.942873 -0.767052,6.393714 1.038507,4.250126 0.878207,6.51168 -0.636884,8.98573 -3.414975,5.576387 -15.769607,11.012057 -25.454198,11.199158 -0.419946,0.0081 -0.70758,0.01377 -0.914803,0.0027 z" /></g><path
         id="path45"
         style="display:inline;fill:url(#linearGradient42);stroke:none;stroke-width:0;stroke-dasharray:none;stroke-opacity:1"
         d="m 20.001963,27.761062 c -0.511042,0.195393 -4.628677,1.861295 -8.553186,6.29993 -4.0407852,4.570148 -3.9068653,10.172682 -3.8922577,10.567938 0.045833,0.128916 0.085684,0.258008 0.1334001,0.386858 2.6026396,7.027978 11.2698216,3.365293 9.1831986,-3.880735 -0.139317,-0.4838 -0.421072,-1.426168 -0.625971,-2.094186 -1.295885,-4.224905 -1.035267,-6.964485 0.856997,-9.008364 0.734699,-0.793558 1.718379,-1.555815 2.897819,-2.271441 z" /><path
         id="path46"
         style="display:inline;fill:none;fill-opacity:1;stroke:none;stroke-width:0;stroke-dasharray:none;stroke-opacity:1"
         d="M 58.274516,14.152807 C 58.011184,14.269193 56.153921,14.564645 43.911343,14.534615 32.894276,14.507591 18.402839,20.069075 11.322249,31.094654 6.6461021,38.376147 7.4404931,43.925589 7.5561148,44.584462 7.5553717,44.560721 7.556506,44.477981 7.5559126,44.435497 7.4691065,43.157266 7.3299043,37.197134 11.620581,31.176311 15.967679,25.076322 27.859249,15.539184 44.06839,15.107225 56.538085,14.77492 58.099372,14.306831 58.274516,14.152807 Z" /><g
         id="g1"
         style="display:inline"><path
           id="path47"
           style="display:inline;fill:url(#linearGradient49);fill-opacity:1;stroke:none;stroke-width:0;stroke-dasharray:none;stroke-opacity:1"
           d="m 58.316155,14.119659 c -2.38e-4,0.0042 -0.0086,0.0078 -0.01193,0.01334 -0.0055,0.0064 -0.01029,0.01122 -0.02973,0.01981 -0.175144,0.154024 -1.736431,0.622113 -14.206126,0.954419 -16.20914,0.431958 -28.100711,9.969096 -32.447809,16.069085 -4.2906763,6.020823 -4.1514741,11.980955 -4.064668,13.259186 -0.013189,-0.92043 0.086841,-6.069872 3.892865,-10.374505 3.9245,-4.438619 8.042144,-6.104537 8.553185,-6.29993 5.07987,-3.082217 13.806703,-5.29556 22.070677,-5.379672 1.234933,-0.01255 2.274575,0.0064 2.310253,0.04204 0.290011,0.289988 -1.340122,2.097158 -7.450607,8.259703 -11.95095,12.052756 -17.536592,18.986225 -19.451994,24.145867 -0.356892,0.961385 -0.513097,1.67597 -0.434359,2.284986 0.139829,-0.09691 2.392454,-1.634279 6.75127,-3.112271 4.46602,-1.514332 7.798817,-1.765085 7.851419,-1.768969 -0.526217,-0.02832 -0.479625,-0.178015 -0.363819,-0.766649 1.065855,-5.417624 9.960258,-16.857029 23.531413,-30.264701 4.392943,-4.340044 4.7252,-4.732613 4.7252,-5.582602 0,-0.768852 -0.454727,-1.317291 -1.219198,-1.505807 7.82e-4,0.0013 -0.0061,0.005 -0.0061,0.0067 z" /><path
           id="path48"
           style="display:inline;fill:url(#radialGradient51);stroke:none;stroke-width:0;stroke-dasharray:none;stroke-opacity:1"
           d="M 36.960987,6.2324642 C 32.355634,6.1272664 27.726777,7.1248072 23.139296,9.230738 8.900253,15.767318 2.4930906,30.38662 7.5565193,44.62893 7.5563057,44.623141 7.5563659,44.592437 7.5561281,44.584462 7.4405064,43.925589 6.6461107,38.376155 11.322263,31.094654 18.402859,20.069063 32.894419,14.596183 43.911355,14.534615 55.463229,14.470057 58.347716,14.169423 58.32223,14.112988 58.24849,14.094805 58.175501,14.075753 58.096055,14.064479 57.504331,13.980512 56.506044,13.43794 54.470598,12.093793 48.764646,8.3257728 42.882153,6.3677187 36.961,6.2324642 Z"
           sodipodi:nodetypes="ssccsscscss" /></g></g><path
       id="text49"
       style="font-style:normal;font-variant:normal;font-weight:normal;font-stretch:normal;font-size:35px;line-height:0;font-family:Poppins;-inkscape-font-specification:Poppins;display:inline;fill:url(#linearGradient53);fill-opacity:1;stroke-width:0.657;stroke-linejoin:round;paint-order:markers fill stroke"
       d="m 171.5208,20.445264 c -1.86667,0 -3.58158,0.315162 -5.14491,0.945162 -1.56333,0.606666 -2.92817,1.48183 -4.09484,2.625162 -1.14333,1.119999 -2.04159,2.438133 -2.69493,3.954798 -0.62999,1.493332 -0.94516,3.138434 -0.94516,4.935099 0,1.796665 0.31517,3.453057 0.94516,4.969723 0.65334,1.493331 1.5516,2.811981 2.69493,3.955314 1.16667,1.119999 2.53151,1.994646 4.09484,2.624646 1.58667,0.606666 3.30158,0.910022 5.14491,0.910022 1.84333,0 3.54695,-0.303356 5.11028,-0.910022 1.56333,-0.63 2.91637,-1.504647 4.0597,-2.624646 1.16667,-1.119999 2.06493,-2.438649 2.69493,-3.955314 0.65333,-1.516666 0.9803,-3.173058 0.9803,-4.969723 0,-1.796665 -0.32697,-3.453574 -0.9803,-4.970239 -0.63,-1.516665 -1.52826,-2.834799 -2.69493,-3.954798 -1.14333,-1.119998 -2.49637,-1.983356 -4.0597,-2.590022 -1.56333,-0.63 -3.26695,-0.945162 -5.11028,-0.945162 z m -82.420295,0.210323 v 2.239656 H 105.08868 L 88.855558,43.370479 v 1.784904 H 108.9458 V 42.91521 H 92.326147 L 108.52568,22.440491 v -1.784904 z m 24.955065,0 v 24.499796 h 17.32504 V 42.91521 h -14.73502 v -9.099703 h 12.67003 v -2.205033 h -12.67003 v -8.715231 h 14.20999 v -2.239656 z m 19.18023,0 10.84998,24.499796 h 2.55488 l 10.84999,-24.499796 h -2.62517 L 145.418,41.976766 136.03562,20.655587 Z m 56.94019,0 V 45.155383 H 206.4861 V 42.91521 H 192.76601 V 20.655587 Z m 14.88436,0 10.84999,24.499796 h 2.55488 L 229.3152,20.655587 h -2.62516 l -9.44697,21.321179 -9.38289,-21.321179 z m 27.79004,0 v 24.499796 h 2.59002 V 20.655587 Z m 17.85007,0 -11.20035,24.499796 h 2.69544 l 2.92851,-6.54482 h 13.67255 l 2.9285,6.54482 h 2.73007 L 253.25534,20.655587 Z M 171.5208,22.7552 c 1.47,0 2.82355,0.256646 4.06021,0.769979 1.26,0.49 2.3451,1.201938 3.2551,2.13527 0.93333,0.909999 1.65656,1.983293 2.1699,3.219959 0.51333,1.213332 0.76997,2.555078 0.76997,4.025077 0,1.469999 -0.25664,2.823035 -0.76997,4.059701 -0.51334,1.213332 -1.23657,2.286626 -2.1699,3.219958 -0.91,0.909999 -1.9951,1.621937 -3.2551,2.13527 -1.23666,0.49 -2.59021,0.734839 -4.06021,0.734839 -1.47,0 -2.83485,-0.244839 -4.09484,-0.734839 -1.26,-0.513333 -2.35691,-1.225271 -3.29024,-2.13527 -0.91,-0.933332 -1.63323,-2.017916 -2.1699,-3.254582 -0.51333,-1.236665 -0.76997,-2.578412 -0.76997,-4.025077 0,-1.469999 0.25664,-2.811745 0.76997,-4.025077 0.53667,-1.236666 1.2599,-2.30996 2.1699,-3.219959 0.93333,-0.933332 2.03024,-1.64527 3.29024,-2.13527 1.25999,-0.513333 2.62484,-0.769979 4.09484,-0.769979 z m 80.43953,0.578259 5.89628,13.176974 h -11.79256 z" /><text
       xml:space="preserve"
       style="font-style:normal;font-variant:normal;font-weight:normal;font-stretch:normal;font-size:35px;line-height:0;font-family:Poppins;-inkscape-font-specification:Poppins;display:none;fill:url(#linearGradient53-8);fill-opacity:1;stroke-width:0.657;stroke-linejoin:round;paint-order:markers fill stroke"
       x="87.28067"
       y="45.155293"
       id="text49-8"><tspan
         sodipodi:role="line"
         id="tspan49"
         style="font-style:normal;font-variant:normal;font-weight:normal;font-stretch:normal;font-size:35px;line-height:0;font-family:Montserrat;-inkscape-font-specification:Montserrat;fill:url(#linearGradient53-8);stroke-width:0.657"
         x="87.28067"
         y="45.155293"
         dx="0">ZEVOLVIA</tspan></text></g></svg>
